<svg width="430" height="195" viewBox="0 0 430 195" fill="none" xmlns="http://www.w3.org/2000/svg">
<path d="M136.667 20.6667C116 22.6667 89.3334 26.4 84.2667 28.1334C81.6001 29.0667 82.8001 29.2 88.6667 28.6667C160.533 22.8 213.733 25.0667 265.333 36.2667C312.4 46.4 349.067 62.6667 368.533 82.1334C397.2 110.8 385.867 143.2 338.667 168.267C329.867 172.933 305.067 183.067 298.267 184.667C296.267 185.2 294.8 185.867 295.2 186.267C295.467 186.533 302 185.333 309.467 183.333C352.667 172.533 384.133 157.2 401.733 138.8C411.867 128.133 416 119.333 416 107.867C416 68.9334 352.667 34.9334 257.333 22.8C222.4 18.4 170.267 17.4667 136.667 20.6667Z" fill="#1E1B4A"/>
<path d="M97.3334 65.8667C76.2667 69.8667 58.6667 83.6 49.2 103.333C43.0667 116.133 44.1334 126.8 52.5334 134.533C56.9334 138.667 69.8667 141.2 86.9334 141.333C96.9334 141.333 100.267 141.867 102 143.467C104.533 146 103.6 149.867 99.4667 154.533C94.2667 160.267 89.6 161.333 68 161.333H47.8667L28.6667 174.533L9.33337 187.733L34.2667 188.667C82.9334 190.667 98 186.8 117.467 167.6C127.733 157.333 133.333 146 133.333 135.2C133.333 118 123.2 112 93.8667 112C84.2667 112 78.6667 111.467 77.6 110.4C75.2 108 75.7334 103.467 78.8 99.4667C84 92.8 87.4667 92 109.867 92H130.667L149.867 78.9333C160.533 71.8667 169.2 65.7333 169.333 65.3333C169.467 63.7333 105.867 64.1333 97.3334 65.8667Z" fill="#BE202B"/>
<path d="M262.667 65.8666C251.6 67.8666 244 71.4666 234 79.0666C220.267 89.6 211.867 102.933 210.933 115.867C209.6 134.133 220.933 141.2 251.6 141.333C262.133 141.333 265.6 141.867 267.2 143.467C270 146.133 269.867 146.8 266.267 152.133C260.933 160.133 256.667 161.333 233.6 161.333H213.2L194 174.533L174.667 187.733L199.467 188.667C237.733 190.133 252.933 188.133 267.467 179.467C291.867 164.933 305.333 138.4 295.867 123.2C290.933 115.067 280.8 112 259.333 112C249.6 112 244 111.467 242.933 110.4C240.533 108 241.067 103.467 244.133 99.4666C249.333 92.8 252.8 92 275.2 92H295.733L315.2 78.9333C325.867 71.8666 334.533 65.6 334.667 65.2C334.667 63.6 271.467 64.1333 262.667 65.8666Z" fill="#BE202B"/>
<path d="M169.333 91.0667L144.667 116.267V128.533C144.667 139.467 144.267 141.6 140.4 150L136 159.333L139.733 155.2C151.867 141.333 164.533 128 165.6 128C166.133 128 166.667 133.333 166.667 140V152H157.333H147.867L143.467 161.733L138.933 171.333L152.8 171.733L166.533 172.133L167.467 176.667C167.867 179.333 168.8 181.733 169.467 182C170 182.4 176.667 178.4 184 173.067L197.6 163.333L196.667 115.333C196.133 88.9333 195.333 66.9333 194.933 66.5333C194.4 66.1333 182.933 77.0667 169.333 91.0667Z" fill="#1E1B4A"/>
</svg>
